# xmcd
#
# Track frame offsets:
#	150
#	15225
#	29290
#	43355
#	59593
#	72623
#	84378
#	98045
#	110070
#	121935
#	133903
#	147080
#	159173
#	170295
#	179645
#	190455
#	200858
#	211268
#
# Disc length: 2978 seconds
#
# Revision: 0
# Processed by: cddbd v1.5.1PL0 Copyright (c) Steve Scherf et al.
# Submitted via: dBpowerAMP V4.0
#
DISCID=0d0ba012
DTITLE=Dave Dudley - Deutschland Autobahn
DYEAR=1994
DGENRE=Country
TTITLE0=Deutschland Autobahn
TTITLE1=Morning Sun
TTITLE2=Think I'll send him Some Roses
TTITLE3=One A.M. Alone
TTITLE4=Have it your Way
TTITLE5=Blue Bedroom Eyes
TTITLE6=Thirty Eight and Lonely
TTITLE7=Farewell Two Arms
TTITLE8=Where did all the Cowboys go
TTITLE9=Rodeo Drifter
TTITLE10=I can't remember you
TTITLE11=Eagles Fly Alone
TTITLE12=My Town
TTITLE13=Comin' Down
TTITLE14=That's How Cold
TTITLE15=The Night You Broke the News
TTITLE16=Fly Away Again
TTITLE17=Hoe Come it si long to say Goodbye
EXTD=Morning Sun Dave Dudley
EXTT0=
EXTT1=
EXTT2=
EXTT3=
EXTT4=
EXTT5=
EXTT6=
EXTT7=
EXTT8=
EXTT9=
EXTT10=
EXTT11=
EXTT12=
EXTT13=
EXTT14=
EXTT15=
EXTT16=
EXTT17=
PLAYORDER=
